<mxfile host="app.diagrams.net" agent="Mozilla/5.0 (Windows NT 10.0; Win64; x64; rv:133.0) Gecko/20100101 Firefox/133.0" version="25.0.3">
  <diagram name="Page-1" id="2YBvvXClWsGukQMizWep">
    <mxGraphModel dx="1274" dy="669" grid="1" gridSize="10" guides="1" tooltips="1" connect="1" arrows="1" fold="1" page="1" pageScale="1" pageWidth="850" pageHeight="1100" math="0" shadow="0">
      <root>
        <mxCell id="0" />
        <mxCell id="1" parent="0" />
        <mxCell id="CObYJEAy56xA2G8EUnc1-17" value="" style="endArrow=none;dashed=1;html=1;rounded=0;exitX=0;exitY=0.418;exitDx=0;exitDy=0;exitPerimeter=0;entryX=1;entryY=0.419;entryDx=0;entryDy=0;entryPerimeter=0;" parent="1" edge="1">
          <mxGeometry width="50" height="50" relative="1" as="geometry">
            <mxPoint x="100" y="539.12" as="sourcePoint" />
            <mxPoint x="510" y="539.46" as="targetPoint" />
          </mxGeometry>
        </mxCell>
        <mxCell id="0QtaSWrWx8qJe-UsxeRv-9" value="" style="endArrow=none;dashed=1;html=1;rounded=0;exitX=0;exitY=0.418;exitDx=0;exitDy=0;exitPerimeter=0;" parent="1" edge="1">
          <mxGeometry width="50" height="50" relative="1" as="geometry">
            <mxPoint x="120" y="460" as="sourcePoint" />
            <mxPoint x="490" y="460" as="targetPoint" />
          </mxGeometry>
        </mxCell>
        <mxCell id="0QtaSWrWx8qJe-UsxeRv-10" value="redirectToInternshipPage(internshipList)" style="html=1;verticalAlign=bottom;endArrow=open;dashed=1;endSize=8;curved=0;rounded=0;" parent="1" edge="1">
          <mxGeometry x="-0.0028" relative="1" as="geometry">
            <mxPoint x="409.5" y="440" as="sourcePoint" />
            <mxPoint x="154.83666666666662" y="440" as="targetPoint" />
            <mxPoint as="offset" />
          </mxGeometry>
        </mxCell>
        <mxCell id="CObYJEAy56xA2G8EUnc1-1" value="S&amp;amp;C" style="shape=umlLifeline;perimeter=lifelinePerimeter;whiteSpace=wrap;html=1;container=1;dropTarget=0;collapsible=0;recursiveResize=0;outlineConnect=0;portConstraint=eastwest;newEdgeStyle={&quot;edgeStyle&quot;:&quot;elbowEdgeStyle&quot;,&quot;elbow&quot;:&quot;vertical&quot;,&quot;curved&quot;:0,&quot;rounded&quot;:0};" parent="1" vertex="1">
          <mxGeometry x="360" y="40" width="100" height="560" as="geometry" />
        </mxCell>
        <mxCell id="ODIJXYlx-aS8_YNGp8-O-1" value="" style="html=1;points=[[0,0,0,0,5],[0,1,0,0,-5],[1,0,0,0,5],[1,1,0,0,-5]];perimeter=orthogonalPerimeter;outlineConnect=0;targetShapes=umlLifeline;portConstraint=eastwest;newEdgeStyle={&quot;curved&quot;:0,&quot;rounded&quot;:0};" vertex="1" parent="CObYJEAy56xA2G8EUnc1-1">
          <mxGeometry x="45" y="65" width="10" height="25" as="geometry" />
        </mxCell>
        <mxCell id="ODIJXYlx-aS8_YNGp8-O-2" value="" style="html=1;points=[[0,0,0,0,5],[0,1,0,0,-5],[1,0,0,0,5],[1,1,0,0,-5]];perimeter=orthogonalPerimeter;outlineConnect=0;targetShapes=umlLifeline;portConstraint=eastwest;newEdgeStyle={&quot;curved&quot;:0,&quot;rounded&quot;:0};" vertex="1" parent="CObYJEAy56xA2G8EUnc1-1">
          <mxGeometry x="45" y="121" width="10" height="419" as="geometry" />
        </mxCell>
        <mxCell id="CObYJEAy56xA2G8EUnc1-6" value="" style="shape=umlLifeline;perimeter=lifelinePerimeter;whiteSpace=wrap;html=1;container=1;dropTarget=0;collapsible=0;recursiveResize=0;outlineConnect=0;portConstraint=eastwest;newEdgeStyle={&quot;curved&quot;:0,&quot;rounded&quot;:0};participant=umlActor;" parent="1" vertex="1">
          <mxGeometry x="145" y="40" width="20" height="560" as="geometry" />
        </mxCell>
        <mxCell id="CObYJEAy56xA2G8EUnc1-7" value="Student" style="text;html=1;align=center;verticalAlign=middle;resizable=0;points=[];autosize=1;strokeColor=none;fillColor=none;" parent="1" vertex="1">
          <mxGeometry x="90" y="50" width="60" height="30" as="geometry" />
        </mxCell>
        <mxCell id="CObYJEAy56xA2G8EUnc1-8" value="" style="edgeStyle=elbowEdgeStyle;fontSize=12;html=1;endArrow=blockThin;endFill=1;rounded=0;" parent="1" edge="1">
          <mxGeometry width="160" relative="1" as="geometry">
            <mxPoint x="155.10000000000002" y="105" as="sourcePoint" />
            <mxPoint x="409.5" y="105" as="targetPoint" />
            <Array as="points">
              <mxPoint x="270" y="105" />
            </Array>
          </mxGeometry>
        </mxCell>
        <mxCell id="CObYJEAy56xA2G8EUnc1-9" value="requestSearchPage()" style="text;html=1;align=center;verticalAlign=middle;resizable=0;points=[];autosize=1;strokeColor=none;fillColor=none;" parent="1" vertex="1">
          <mxGeometry x="210" y="80" width="140" height="30" as="geometry" />
        </mxCell>
        <mxCell id="CObYJEAy56xA2G8EUnc1-15" value="&lt;b&gt;SD&lt;/b&gt;&amp;nbsp;Internship Search" style="shape=umlFrame;whiteSpace=wrap;html=1;pointerEvents=0;width=160;height=30;" parent="1" vertex="1">
          <mxGeometry x="80" width="450" height="620" as="geometry" />
        </mxCell>
        <mxCell id="CObYJEAy56xA2G8EUnc1-19" value="else" style="text;html=1;align=center;verticalAlign=middle;resizable=0;points=[];autosize=1;strokeColor=none;fillColor=none;" parent="1" vertex="1">
          <mxGeometry x="100" y="540" width="50" height="30" as="geometry" />
        </mxCell>
        <mxCell id="CObYJEAy56xA2G8EUnc1-20" value="if checkFiltersData(filtersData):" style="text;html=1;align=center;verticalAlign=middle;resizable=0;points=[];autosize=1;strokeColor=none;fillColor=none;labelBackgroundColor=default;" parent="1" vertex="1">
          <mxGeometry x="100" y="320" width="190" height="30" as="geometry" />
        </mxCell>
        <mxCell id="CObYJEAy56xA2G8EUnc1-24" value="redirectToInternshipCreationPage(emptyList, message)" style="html=1;verticalAlign=bottom;endArrow=open;dashed=1;endSize=8;curved=0;rounded=0;" parent="1" edge="1">
          <mxGeometry x="-0.0028" relative="1" as="geometry">
            <mxPoint x="410.24" y="580" as="sourcePoint" />
            <mxPoint x="155.75219512195122" y="580" as="targetPoint" />
            <mxPoint as="offset" />
          </mxGeometry>
        </mxCell>
        <mxCell id="HJIBpvxVfIBrpGYPyr1l-3" value="redirectToRequestPage()" style="html=1;verticalAlign=bottom;endArrow=open;dashed=1;endSize=8;curved=0;rounded=0;" parent="1" edge="1">
          <mxGeometry relative="1" as="geometry">
            <mxPoint x="409.5" y="130" as="sourcePoint" />
            <mxPoint x="154.81034482758605" y="130" as="targetPoint" />
            <Array as="points">
              <mxPoint x="280.5" y="130" />
            </Array>
          </mxGeometry>
        </mxCell>
        <mxCell id="HJIBpvxVfIBrpGYPyr1l-5" value="searchInternship(filtersData)" style="text;html=1;align=center;verticalAlign=middle;resizable=0;points=[];autosize=1;strokeColor=none;fillColor=none;" parent="1" vertex="1">
          <mxGeometry x="195" y="136" width="170" height="30" as="geometry" />
        </mxCell>
        <mxCell id="HJIBpvxVfIBrpGYPyr1l-8" value="" style="edgeStyle=elbowEdgeStyle;fontSize=12;html=1;endArrow=blockThin;endFill=1;rounded=0;" parent="1" edge="1">
          <mxGeometry width="160" relative="1" as="geometry">
            <mxPoint x="155" y="161" as="sourcePoint" />
            <mxPoint x="409.5" y="161" as="targetPoint" />
            <Array as="points">
              <mxPoint x="270" y="161" />
            </Array>
          </mxGeometry>
        </mxCell>
        <mxCell id="CObYJEAy56xA2G8EUnc1-14" value="alternative" style="shape=umlFrame;whiteSpace=wrap;html=1;pointerEvents=0;width=80;height=30;" parent="1" vertex="1">
          <mxGeometry x="100" y="290" width="410" height="320" as="geometry" />
        </mxCell>
        <mxCell id="0QtaSWrWx8qJe-UsxeRv-4" value="checkFiltersData(filtersData)" style="html=1;align=left;spacingLeft=2;endArrow=block;rounded=0;edgeStyle=orthogonalEdgeStyle;curved=0;rounded=0;" parent="1" edge="1">
          <mxGeometry x="-1" y="65" relative="1" as="geometry">
            <mxPoint x="415" y="172.97" as="sourcePoint" />
            <Array as="points">
              <mxPoint x="415" y="170" />
              <mxPoint x="435" y="170" />
              <mxPoint x="435" y="198" />
            </Array>
            <mxPoint y="7" as="offset" />
            <mxPoint x="420" y="198.0044827586207" as="targetPoint" />
          </mxGeometry>
        </mxCell>
        <mxCell id="0QtaSWrWx8qJe-UsxeRv-6" value="" style="html=1;points=[[0,0,0,0,5],[0,1,0,0,-5],[1,0,0,0,5],[1,1,0,0,-5]];perimeter=orthogonalPerimeter;outlineConnect=0;targetShapes=umlLifeline;portConstraint=eastwest;newEdgeStyle={&quot;curved&quot;:0,&quot;rounded&quot;:0};" parent="1" vertex="1">
          <mxGeometry x="410" y="250" width="10" height="30" as="geometry" />
        </mxCell>
        <mxCell id="0QtaSWrWx8qJe-UsxeRv-7" value="alternative" style="shape=umlFrame;whiteSpace=wrap;html=1;pointerEvents=0;width=80;height=30;" parent="1" vertex="1">
          <mxGeometry x="120" y="360" width="370" height="160" as="geometry" />
        </mxCell>
        <mxCell id="0QtaSWrWx8qJe-UsxeRv-8" value="if&amp;nbsp;searchInternships(filtersData):" style="text;whiteSpace=wrap;html=1;" parent="1" vertex="1">
          <mxGeometry x="125" y="396" width="200" height="30" as="geometry" />
        </mxCell>
        <mxCell id="0QtaSWrWx8qJe-UsxeRv-11" value="else" style="text;html=1;align=center;verticalAlign=middle;resizable=0;points=[];autosize=1;strokeColor=none;fillColor=none;" parent="1" vertex="1">
          <mxGeometry x="112" y="457" width="50" height="30" as="geometry" />
        </mxCell>
        <mxCell id="0QtaSWrWx8qJe-UsxeRv-21" value="" style="html=1;points=[[0,0,0,0,5],[0,1,0,0,-5],[1,0,0,0,5],[1,1,0,0,-5]];perimeter=orthogonalPerimeter;outlineConnect=0;targetShapes=umlLifeline;portConstraint=eastwest;newEdgeStyle={&quot;curved&quot;:0,&quot;rounded&quot;:0};" parent="1" vertex="1">
          <mxGeometry x="410" y="190" width="10" height="30" as="geometry" />
        </mxCell>
        <mxCell id="0QtaSWrWx8qJe-UsxeRv-14" value="redirectToInternshipCreationPage(emptyList, message)" style="html=1;verticalAlign=bottom;endArrow=open;dashed=1;endSize=8;curved=0;rounded=0;" parent="1" edge="1" source="ODIJXYlx-aS8_YNGp8-O-2">
          <mxGeometry x="-0.0028" relative="1" as="geometry">
            <mxPoint x="410" y="500" as="sourcePoint" />
            <mxPoint x="154.8939393939395" y="500" as="targetPoint" />
            <mxPoint as="offset" />
          </mxGeometry>
        </mxCell>
        <mxCell id="0QtaSWrWx8qJe-UsxeRv-5" value="searchInternships(filtersData)" style="html=1;align=left;spacingLeft=2;endArrow=block;rounded=0;edgeStyle=orthogonalEdgeStyle;curved=0;rounded=0;" parent="1" edge="1">
          <mxGeometry x="-1" y="65" relative="1" as="geometry">
            <mxPoint x="415" y="233.97" as="sourcePoint" />
            <Array as="points">
              <mxPoint x="415" y="232" />
              <mxPoint x="435" y="232" />
              <mxPoint x="435" y="259" />
            </Array>
            <mxPoint y="6" as="offset" />
            <mxPoint x="420" y="259.0044827586207" as="targetPoint" />
          </mxGeometry>
        </mxCell>
      </root>
    </mxGraphModel>
  </diagram>
</mxfile>
